<?xml version="1.0" encoding="utf-8"?>
<!-- Generator: Adobe Illustrator 13.0.0, SVG Export Plug-In . SVG Version: 6.00 Build 14948)  -->
<!DOCTYPE svg PUBLIC "-//W3C//DTD SVG 1.1//EN" "http://www.w3.org/Graphics/SVG/1.1/DTD/svg11.dtd">
<svg version="1.1" id="Capa_1" xmlns="http://www.w3.org/2000/svg" xmlns:xlink="http://www.w3.org/1999/xlink" x="0px" y="0px"
	 width="40.007px" height="40.007px" viewBox="0 0 40.007 40.007" enable-background="new 0 0 40.007 40.007" xml:space="preserve">
<g id="_x34_95._Up">
	<g>
		<path fill="#DF1111" d="M12.418,18.589c-0.781,0.78-0.781,2.048,0,2.829v0.001c0.002,0.002,0.004,0.003,0.005,0.004l5.651,5.651
			c0.781,0.781,2.048,0.781,2.829,0h-0.001c0.781-0.78,0.781-2.047,0-2.827l-2.242-2.243h8.343c1.104,0,2-0.896,2-2s-0.896-2-2-2
			H18.66l2.242-2.242c0.781-0.78,0.781-2.049,0-2.828h0.001c-0.781-0.78-2.048-0.78-2.829,0L12.418,18.589z M10.003,2.683
			C0.438,8.204-2.84,20.438,2.683,30.003c5.522,9.565,17.755,12.844,27.32,7.319c9.564-5.521,12.844-17.754,7.32-27.319
			C31.798,0.439,19.569-2.84,10.003,2.683z M33.859,12.003c4.418,7.652,1.797,17.438-5.855,21.855
			c-7.651,4.419-17.438,1.796-21.855-5.855C1.73,20.351,4.352,10.565,12.005,6.147C19.656,1.729,29.441,4.351,33.859,12.003z"/>
	</g>
</g>
</svg>
