<?xml version="1.0" encoding="utf-8"?>
<!-- Generator: Adobe Illustrator 13.0.0, SVG Export Plug-In . SVG Version: 6.00 Build 14948)  -->
<!DOCTYPE svg PUBLIC "-//W3C//DTD SVG 1.1//EN" "http://www.w3.org/Graphics/SVG/1.1/DTD/svg11.dtd">
<svg version="1.1" id="Capa_1" xmlns="http://www.w3.org/2000/svg" xmlns:xlink="http://www.w3.org/1999/xlink" x="0px" y="0px"
	 width="40.007px" height="40.007px" viewBox="0 0 40.007 40.007" enable-background="new 0 0 40.007 40.007" xml:space="preserve">
<g>
	<g id="_x34_95._Up">
		<g>
			<path d="M37.324,10.003C31.798,0.439,19.569-2.84,10.003,2.683C0.438,8.204-2.84,20.438,2.683,30.003
				c5.522,9.565,17.755,12.844,27.32,7.319C39.568,31.801,42.847,19.569,37.324,10.003z M28.003,33.859
				c-7.651,4.419-17.438,1.796-21.855-5.855C1.73,20.351,4.352,10.565,12.005,6.147c7.651-4.418,17.436-1.796,21.854,5.856
				S35.656,29.442,28.003,33.859z"/>
		</g>
	</g>
	<path d="M29.593,19.176c0.37-0.407,0.335-1.031-0.08-1.394l-9.119-7.979c-0.414-0.361-1.077-0.354-1.482,0.017l-9.151,8.387
		c-0.405,0.372-0.425,0.995-0.043,1.391l0.229,0.239c0.38,0.396,0.996,0.443,1.373,0.105l0.684-0.612v8.966
		c0,0.549,0.446,0.994,0.995,0.994h3.567c0.55,0,0.996-0.445,0.996-0.994v-6.273h4.549v6.273c-0.008,0.549,0.385,0.994,0.935,0.994
		h3.779c0.55,0,0.996-0.445,0.996-0.996v-8.838c0,0,0.189,0.166,0.422,0.37c0.233,0.205,0.721,0.04,1.092-0.367L29.593,19.176z"/>
</g>
</svg>
